<svg xmlns="http://www.w3.org/2000/svg" width="424" height="606" viewBox="0 0 424 606">
    <g fill="none" fill-rule="evenodd">
        <path fill="#00529B" d="M185.027 524.738l14.54-10.989c11.39-8.604 27.729-6.322 36.323 5.08l25.818 34.228c8.59 11.398 6.306 27.76-5.075 36.364l-14.55 10.99c-11.38 8.608-27.727 6.322-36.321-5.077l-25.81-34.231c-8.593-11.394-6.31-27.76 5.075-36.365M294.477 498.151l17.983-2.952c14.078-2.308 27.481 7.33 29.787 21.42l6.93 42.327c2.311 14.094-7.317 27.509-21.394 29.822L309.8 591.72c-14.078 2.313-27.477-7.33-29.787-21.425l-6.931-42.322c-2.306-14.094 7.322-27.509 21.395-29.822M81.754 341.007c40.978 13.761 87.247 19.305 135.449 14.423 54.777-5.553 104.421-23.796 144.74-50.571-10.02 43.231-37.81 80.248-75.926 102.159 12.09 10.88 21.094 24.363 27.31 40.153.953 2.426 1.124 4.487-2.697 3.299-8.481-2.624-16.388-.986-23.534 3.92-3.124 2.141-4.428 1.331-5.772-1.729-3.627-8.257-8.94-15.38-15.309-21.726-1.645-1.633-2.427-3.384-2.31-5.782.135-2.52.198-5.13.306-7.668-12.91 4.968-26.627 8.406-41.046 9.864-23.265 2.362-45.815-.527-66.621-7.533 5.416 4.81 10.729 9.58 16.077 14.184 1.816 1.57 2.54 3.343 2.59 5.665.184 8.987 1.667 17.753 5.137 26.087 1.28 3.082.966 4.58-2.737 5.368-8.477 1.791-15.12 6.395-19.072 14.35-1.775 3.583-3.155 2.044-4.247-.328-9.996-21.604-13.07-44.037-7.646-67.37.14-.593.302-.998.459-1.421-37.567-15.377-68.388-44.789-85.202-82.418-.1-.216-.203-.432-.297-.652.66.283 1.299.585 1.96.864a294 294 0 0 0 18.388 6.862"/>
        <path d="M68.043.5H.776v98.508h67.267z"/>
        <path fill="#00529B" d="M52.657 51.13c-4.873.37-6.113 2.485-6.572 6.832-1.28 12.11-2.993 24.174-4.45 36.265-.557 4.63-2.063 6.134-6.72 3.46-6.476-3.72-13.627-4.522-20.819-2.245-3.874 1.224-5.02.558-4.423-3.703 1.726-12.276 2.922-24.629 4.724-36.891.697-4.716.144-7.457-4.944-9.351C3.435 43.26.405 37.932.81 31.46c.445-7.15 1.56-14.26 2.193-19.737C5.201 3.26 9.948-.273 16.128.636c6.283.918 10.625 5.59 10 12.317-.507 5.454 1.183 7.537 6.433 7.398 1.717-.045 3.483.252 5.169.639 4.485 1.04 6.625-.468 7.663-5.189 1.528-6.939 7.2-10.692 13.224-9.688 6.135 1.021 9.973 6.241 9.362 13.58-.54 6.494-1.434 12.979-2.553 19.405-1.191 6.826-5.803 11.506-12.77 12.033M109.648 211.114c2.882 2.439 5.111.364 6.927-1.958 11.767-15.03 25.678-27.44 43.23-35.379 2.9-1.309 4.315-3.942 3.618-6.52-.525-1.958-3.06-3.384-5.173-1.017-21.377 5.701-35.513 20.78-48.939 36.756-2.234 2.66-2.4 5.791.337 8.118m52.886 83.97c12.427-.392 21.866-20.885 21.084-45.774-.786-24.885-11.497-44.739-23.925-44.343-12.428.391-21.867 20.88-21.085 45.77.787 24.884 11.498 44.738 23.926 44.347m76.495-1.706c12.433-.391 21.867-20.88 21.09-45.769-.787-24.885-11.498-44.744-23.93-44.348-12.424.392-21.867 20.885-21.08 45.77.786 24.885 11.497 44.739 23.92 44.347m45.676-81.139c1.133 2.718 2.733 5.319 6.153 3.73 3.263-1.507 3.938-4.572 2.49-7.73-8.683-18.982-18.293-37.288-37.382-48.488-1.407-2.849-4.23-2.151-5.255-.4-1.362 2.299-.692 5.215 1.749 7.249 14.805 12.334 24.905 28.008 32.245 45.639m-273.95-66.906c8.023 3.793 16.087 3.28 23.854-.567 3.393-1.679 4.562-.698 5.465 2.52 1.82 6.493 4.661 12.487 8.24 18.094 37.72 6.13 57.262-18.148 45.329-57.645 7.618-4.635 15.322-9.324 23.08-14.049 3.142-1.912 6.27-3.811 9.448-5.746.247.337.508.643.764.976 2.652 3.42 5.466 6.417 8.464 8.92.036.031.08.062.121.094 8.985 7.443 19.62 10.53 32.475 7.6 17.835-4.072 26.68-17.023 30.47-33.678 9.214.756 18.037 1.48 26.739 2.196 3.676.302 7.34.608 10.985.905 0 .256.027.504.036.756.386 13.04 6.014 24.165 14.554 31.4.05.037.103.073.148.113 11.52 9.671 28.258 12.245 44.57 2.925a55.744 55.744 0 0 0 9.192-6.565c.323.283.651.567.975.85 9.228 7.96 18.5 15.962 27.701 23.904-9.727 13.302-12.199 27.05-5.353 41.5 2.8 5.908 6.369 10.435 10.544 13.823.05.045.113.077.171.122 5.978 4.797 13.215 7.227 21.278 7.947 3.61.324 7.363.337 11.269.013.072.302.134.585.206.887l2.751 11.727c17.705 13.536 29.378 31.41 35.9 52.88.76 2.497.76 4.567-2.953 3.077-8.244-3.303-16.253-2.3-23.778 2.012-3.276 1.885-4.512.976-5.609-2.183-2.953-8.527-7.677-16.056-13.52-22.882-.14-.171-.176-.351-.301-.518-7.538 6.201-12.307 14.585-13.318 25.97-1.263 14.292 4.306 24.781 13.808 32.845a60.388 60.388 0 0 0 4.031 3.101c-45.823 29.353-103.68 47.142-166.732 47.75-48.444.472-94.016-9.266-133.575-26.704-4.638-3.816-10.562-6.714-17.682-8.514-5.079-1.282-10.738-2.03-16.98-2.12-.266-.004-.527-.017-.792-.022-.728-3.11-1.465-6.268-2.198-9.405-.126-.535-.247-1.066-.373-1.606-1.942-8.32-3.883-16.637-5.843-25.052 15.916-5.656 26.487-15.394 28.802-32.283 2.068-15.088-3.142-26.338-13.35-34.96a.94.94 0 0 1-.098-.09c-2.468-2.075-5.223-4-8.243-5.787-.36-.212-.706-.432-1.075-.644.562-1.336 1.11-2.646 1.668-3.973-12.127-13.185-20.092-28.985-24.398-47.025-.606-2.538-.48-4.6 3.133-2.889"/>
        <path fill="#00529B" d="M26.21 105.557c9.552 2.574 15.256 12.6 12.437 21.861-2.688 8.851-12.117 13.752-21.386 11.12-9.762-2.777-14.792-11.7-11.97-21.223 2.711-9.148 11.76-14.233 20.92-11.758M191.317 482.23c7.943 5.526 9.669 16.929 3.767 24.871-5.663 7.628-15.907 9.248-23.7 3.749-8.11-5.724-9.678-15.85-3.731-24.08 5.645-7.82 16.077-9.819 23.664-4.54M300.908 492.026c-9.817-1.206-16.865-10.328-15.381-19.895 1.424-9.14 10.063-15.318 19.615-14.013 10.054 1.373 16.289 9.495 14.828 19.323-1.398 9.437-9.641 15.746-19.062 14.585M371.059 356.88c4.836-.66 5.95-2.848 6.144-7.213.544-12.168 1.524-24.313 2.243-36.472.279-4.658 1.694-6.25 6.504-3.857 6.688 3.317 13.87 3.681 20.918.977 3.794-1.458 4.971-.864 4.634 3.424-.98 12.357-1.42 24.76-2.48 37.112-.41 4.747.31 7.447 5.505 9.031 6.136 1.868 9.484 7.002 9.47 13.487-.013 7.168-.691 14.332-.988 19.831-1.686 8.586-6.207 12.398-12.433 11.867-6.324-.54-10.944-4.937-10.728-11.687.175-5.467-1.637-7.452-6.868-6.993-1.713.149-3.488-.036-5.192-.328-4.544-.765-6.59.873-7.34 5.643-1.101 7.02-6.54 11.11-12.612 10.476-6.19-.644-10.333-5.625-10.167-12.983.144-6.52.643-13.05 1.37-19.525.774-6.885 5.098-11.835 12.02-12.79M394.16 300.951c-9.69-1.993-15.988-11.65-13.74-21.069 2.152-9 11.259-14.463 20.675-12.393 9.911 2.178 15.476 10.778 13.233 20.453-2.153 9.297-10.877 14.922-20.168 13.01"/>
    </g>
</svg>
