<svg xmlns="http://www.w3.org/2000/svg" width="460" height="390" viewBox="0 0 460 390">
    <g fill="none" fill-rule="evenodd">
        <path fill="#00529C" d="M375.747 304.981c-3.377-9.525-13.925-14.55-23.434-11.166l-12.152 4.323c-9.512 3.382-14.528 13.945-11.15 23.468l10.148 28.61c3.377 9.525 13.923 14.548 23.434 11.166l12.152-4.324c9.51-3.383 14.528-13.942 11.15-23.469l-10.148-28.608z"/>
        <path d="M205.53 321.578h52.036v68.073H205.53z"/>
        <path fill="#00529C" d="M235.231 321.64l-12.853 1.058c-10.059.827-17.613 9.747-16.787 19.82l2.482 30.258c.826 10.073 9.732 17.64 19.791 16.813l12.853-1.058c10.06-.827 17.614-9.747 16.787-19.82l-2.481-30.258c-.827-10.073-9.733-17.64-19.792-16.813M458.822 228.996c-1.745-3.489-3.834-8.132-6.337-12.54-2.268-3.993-6.121-5.973-10.548-4.965-3.748.853-5.135-.557-6.548-3.617-3.677-7.965-7.747-15.747-11.477-23.688-1.293-2.755-2.228-2.707-4.05-.477-3.38 4.137-7.924 6.438-13.199 6.746-3.793.22-4.103 1.696-2.642 4.657 3.817 7.729 7.471 15.54 11.4 23.21 1.408 2.75 1.49 4.485-1.251 6.594-3.92 3.014-4.842 7.578-2.907 12.08 1.823 4.24 3.801 8.43 5.996 12.487 2.479 4.583 6.77 6.19 10.8 4.412 3.953-1.743 5.862-6.168 4.082-10.871-1.211-3.196-.528-4.92 2.533-6.046 1.148-.422 2.305-.932 3.305-1.625 3.055-2.12 4.864-1.537 6.673 1.887 2.232 4.227 6.612 5.308 10.686 3.418 4.014-1.86 5.455-5.795 3.484-11.662M312.902 94.489c-1.78 1.99-3.545.755-5.045-.697-9.708-9.395-20.663-16.74-33.737-20.596-2.157-.636-3.409-2.342-3.17-4.219.18-1.425 1.814-2.672 3.528-1.216 15.539 1.914 26.911 11.11 37.873 21.004 1.826 1.647 2.246 3.826.55 5.724m-36.018 60.532c-8.783.53-16.76-13.302-17.817-30.894-1.058-17.593 5.208-32.283 13.99-32.812 8.784-.53 16.76 13.303 17.818 30.895 1.057 17.592-5.207 32.284-13.991 32.811m-54.018 3.761c-8.782.529-16.76-13.304-17.816-30.896-1.056-17.594 5.207-32.284 13.99-32.813 8.784-.529 16.76 13.304 17.818 30.896 1.056 17.592-5.206 32.283-13.992 32.813m-30.813-59.925c-2.067-1.483-2.13-3.701-.705-5.708 8.552-12.044 17.654-23.495 32.407-28.747 1.356-1.795 3.223-.933 3.708.418.64 1.78-.211 3.718-2.179 4.808-11.924 6.61-21.022 16.166-28.459 27.451-1.147 1.742-2.602 3.334-4.772 1.778m211.22 51.074c-9.008-8.526-19.172-14.609-30.634-17.875l.217-1.574c-11.584-2.956-19.663-9.132-22.387-20.886-2.43-10.505.513-18.771 7.147-25.51.022-.022.042-.048.066-.07 1.604-1.623 3.421-3.157 5.433-4.613.24-.172.467-.35.713-.523-1.24-2.335-2.45-4.618-3.674-6.921-2.932-5.526-5.836-11-8.705-16.402-27.7 8.455-44.171-7.55-38.137-37.06-5.665-2.771-11.398-5.58-17.174-8.405l-7.025-3.439c-.156.253-.319.49-.477.738-1.645 2.583-3.434 4.878-5.388 6.838-.025.024-.054.045-.08.072-5.848 5.83-13.143 8.696-22.391 7.462-12.834-1.714-19.901-10.269-23.65-21.763-6.444 1.13-12.615 2.216-18.7 3.283-2.571.451-5.133.903-7.684 1.35.016.18.014.358.026.536.569 9.215-2.677 17.423-8.228 23.077-.031.032-.065.059-.095.088-7.493 7.563-19.121 10.462-31.219 4.954a39.515 39.515 0 0 1-6.9-4.03l-.636.659-17.975 18.646c7.717 8.745 10.35 18.277 6.46 28.907-1.592 4.343-3.814 7.766-6.536 10.426-.035.035-.076.06-.112.096-3.904 3.771-8.846 5.952-14.483 6.983-2.52.46-5.165.712-7.94.738l-.088.637c-.01.081-.022.156-.033.236-7.126-2.101-14.604-3.134-22.42-3.102-1.845.008-3.242.437-1.465 2.641 3.947 4.891 4.945 10.527 3.6 16.52-.588 2.615.283 3.26 2.644 3.343 5.02.176 9.845 1.248 14.519 2.92-.134.964-.27 1.923-.403 2.891 12.067 3.297 20.477 10.007 22.768 22.603 1.815 9.99-1.43 17.744-7.605 24.045a41.876 41.876 0 0 1-2.638 2.45c34.186 17.716 76.11 26.504 120.578 22.849 34.168-2.811 65.652-12.632 92.399-27.488 3.021-2.989 7.01-5.419 11.912-7.149 3.496-1.233 7.433-2.126 11.825-2.595.19-.02.372-.048.56-.067l.292-2.103c5.417 2.098 10.463 4.874 14.867 8.732 1.78 1.557 2.857 1.682 4.214-.629 3.11-5.293 7.685-8.721 13.906-9.587 2.803-.39 2.078-1.66.736-2.929M408.772 182.416c6.383-2.089 9.772-8.61 7.84-15.08-2.014-6.74-8.446-10.072-15.3-7.928-6.51 2.036-10.195 8.595-8.363 14.882 1.916 6.579 9.17 10.306 15.823 8.126"/>
        <path fill="#00529C" d="M340.378 263.226c2.764.607 2.522-.836 1.705-2.492-5.46-11.046-12.828-20.226-22.35-27.25 20.552-18.585 33.89-44.343 36.72-72.374.017-.168.039-.336.054-.504-.382.336-.742.684-1.127 1.016-3.477 3-7.089 5.903-10.824 8.71-24.468 18.377-54.317 32.414-87.78 39.875-38.033 8.478-75.436 7.286-108.47-1.722 15.694 25.759 41.135 44.005 70.123 50.93-4.918 10.582-7.018 22.009-6.609 34.161.063 1.847.533 3.232 2.68 1.387 4.766-4.097 10.36-5.263 16.38-4.094 2.63.512 3.249-.38 3.26-2.745.033-6.389 1.48-12.512 3.834-18.424.607-1.529.624-2.884-.131-4.408-.505-1.024-1-2.096-1.5-3.122 10.656.766 21.585.095 32.549-2.35 13.474-3.003 25.787-8.378 36.726-15.481.05 1.26.129 2.565.17 3.823.057 1.7.713 2.886 1.97 3.943 4.868 4.092 9.037 8.798 12.087 14.41 1.129 2.079 2.096 2.57 4.17.874 4.749-3.886 10.23-5.512 16.363-4.163M348.568 281.691c.445-7.02-4.434-12.378-11.606-12.748-6.81-.35-12.537 4.521-12.997 11.055-.48 6.836 5.033 12.849 12.028 13.116 6.71.256 12.147-4.682 12.575-11.423M232.494 319.209c6.034-3.552 8.048-11.464 4.392-17.258-3.493-5.537-10.842-7.11-16.674-3.573-6.142 3.726-7.907 10.76-4.195 16.732 3.563 5.734 10.688 7.507 16.477 4.099"/>
        <path d="M0 103.824h71.995v53.324H0z"/>
        <path fill="#00529C" d="M65.391 106.765c.193-2.873-.455-3.55-3.28-2.425-8.144 3.24-16.429 6.128-24.55 9.42-3.12 1.267-5.095 1.346-7.248-1.844-2.54-3.767-6.705-4.963-11.085-3.602-4.837 1.502-9.534 3.457-13.188 4.81-5.445 2.93-7.079 6.787-5.424 10.892 1.684 4.17 5.617 6.381 10.132 4.827 3.659-1.26 5.375-.446 6.157 3.192.256 1.19.751 2.356 1.302 3.45 1.464 2.918.785 4.643-2.281 6.146-4.51 2.21-6.14 6.748-4.446 10.726 1.727 4.057 5.955 5.825 10.893 4.179 4.371-1.457 8.676-3.16 12.901-5.002 4.486-1.96 6.93-5.922 6.13-10.806-.562-3.416.683-4.625 3.59-5.667 8.105-2.905 16.105-6.103 24.167-9.127 3.09-1.159 3.87-2.448 1.253-5.208-3.638-3.836-5.382-8.628-5.023-13.96M78.945 97.046c-5.83 3.398-7.81 10.477-4.58 16.373 3.366 6.144 11.203 8.395 17.094 4.908 5.629-3.332 7.42-10.642 4.061-16.585-3.536-6.259-10.506-8.232-16.575-4.696"/>
    </g>
</svg>
